PathFileType	4	(X/Y/Z)	C:/Users/opensim2020/Desktop/walking_exp_matlab/subject02_walking06_straight_04.trc	
DataRate	CameraRate	NumFrames	NumMarkers	Units	OrigDataRate	OrigDataStartFrame	OrigNumFrames	
100.00	100.00	4	41	mm	100.00	2736	216	
Frame#	Time	LFHD			RFHD			LBHD			RBHD			C7			T10			CLAV			STRN			RBAK			LSHO			LUPA			LELB			LFRM			LWRA			LWRB			LFIN			RSHO			RUPA			RELB			RFRM			RWRA			RWRB			RFIN			LASI			RASI			LPSI			RPSI			LTHI			LKNE			LTIB			LANK			LHEE			LTOE			RTHI			RKNE			RTIB			RANK			RHEE			RTOE			*39			*40			
		X1	Y1	Z1	X2	Y2	Z2	X3	Y3	Z3	X4	Y4	Z4	X5	Y5	Z5	X6	Y6	Z6	X7	Y7	Z7	X8	Y8	Z8	X9	Y9	Z9	X10	Y10	Z10	X11	Y11	Z11	X12	Y12	Z12	X13	Y13	Z13	X14	Y14	Z14	X15	Y15	Z15	X16	Y16	Z16	X17	Y17	Z17	X18	Y18	Z18	X19	Y19	Z19	X20	Y20	Z20	X21	Y21	Z21	X22	Y22	Z22	X23	Y23	Z23	X24	Y24	Z24	X25	Y25	Z25	X26	Y26	Z26	X27	Y27	Z27	X28	Y28	Z28	X29	Y29	Z29	X30	Y30	Z30	X31	Y31	Z31	X32	Y32	Z32	X33	Y33	Z33	X34	Y34	Z34	X35	Y35	Z35	X36	Y36	Z36	X37	Y37	Z37	X38	Y38	Z38	X39	Y39	Z39	X40	Y40	Z40	X41	Y41	Z41	

82	0.810	-932.35449	-50.80944	1745.08533	-1076.03040	-51.88123	1733.44482	-927.40436	77.32335	1666.13782	-1071.23474	88.91632	1652.82239	-1005.53925	127.26649	1527.58875	-1013.20154	173.87102	1251.03296	-995.34576	-14.03211	1462.38025	-1012.18286	-70.24102	1292.29297	-1074.29736	181.33022	1353.46753	-825.08911	55.39330	1496.12756	-747.21289	53.22993	1291.39563	-738.75983	45.16829	1149.98975	-731.96497	20.06673	1020.26422	-771.08112	-47.26308	903.20508	-734.50208	-4.14868	900.05609	-731.87445	-31.08434	840.09033	-1191.64014	48.23635	1503.29565	-1280.10876	61.09606	1312.32349	-1299.59937	30.40932	1167.10144	-1312.18225	-21.28404	1056.60266	-1281.80493	-88.76660	941.20709	-1321.29614	-49.97646	929.73175	-1313.94739	-96.94556	873.63043	-883.47351	-69.67587	998.59863	-1139.15271	-57.38055	977.57306	-952.37207	143.82632	1038.87036	-1066.87366	153.14830	1032.05017	-831.09473	-12.18151	683.85535	-865.06091	13.73851	480.83148	-870.58032	59.87079	290.20639	-917.22144	44.73207	69.51424	-968.26263	81.34811	42.72073	-913.99823	-113.35126	33.75417	-1215.79004	-16.71890	672.18549	-1201.50793	-41.23369	476.37387	-1193.43774	99.93872	361.48450	-1152.59631	227.61592	220.36116	-1086.34644	273.52026	191.02661	-1199.63965	163.32039	80.74669	-1019.10992	52.84653	1811.53760			 
83	0.820	-932.45898	-60.97006	1745.60425	-1075.97314	-61.69752	1733.76782	-927.02606	67.29953	1667.02551	-1070.87585	79.19479	1653.34595	-1004.87756	117.60490	1528.36743	-1011.91455	164.83031	1251.95435	-994.86945	-23.54448	1462.88794	-1011.23431	-79.31791	1292.57849	-1072.72681	172.11861	1354.17224	-824.63123	45.15435	1497.45203	-746.22906	39.43722	1293.02478	-737.25378	27.97616	1151.77026	-731.62384	-1.94026	1022.84259	-772.91119	-72.47283	908.72308	-735.45905	-30.27859	903.52356	-733.43640	-59.63161	844.76746	-1191.39026	38.82842	1503.45300	-1279.33630	53.32536	1312.47058	-1298.35498	24.50820	1166.84143	-1311.48718	-25.41791	1055.68250	-1281.83044	-91.27010	939.32715	-1321.25195	-51.82317	928.46704	-1314.05627	-97.63116	871.23187	-881.90686	-76.64057	998.53546	-1136.93799	-67.40297	979.17419	-952.47821	135.95503	1039.54285	-1067.21277	144.45168	1032.85278	-831.15314	-16.11206	683.50598	-865.28198	10.88613	480.69321	-871.01184	58.55753	290.38208	-917.49811	44.55312	69.59591	-968.67993	81.27332	42.75534	-913.89069	-113.45560	33.70800	-1214.53638	-31.19265	674.03687	-1199.47559	-59.07487	478.39404	-1191.87244	78.67514	359.04752	-1151.57813	201.58826	213.41725	-1085.66296	247.14313	181.86168	-1198.58582	130.96777	77.39136	-1019.19940	42.55901	1812.05884			 
84	0.830	-932.44464	-71.02886	1746.23108	-1076.26746	-71.63619	1733.82605	-926.91577	57.23629	1667.85144	-1070.45630	69.34470	1653.76355	-1004.19269	107.93709	1529.03662	-1010.75293	155.79146	1252.74854	-994.44574	-33.01881	1463.33020	-1010.33734	-88.27471	1292.76648	-1071.82373	163.10939	1354.87280	-824.18280	34.96152	1498.59790	-745.09100	25.87865	1294.79565	-735.69653	10.82140	1153.59875	-731.28064	-23.52183	1025.52197	-774.32800	-97.87682	914.44208	-736.41455	-56.15524	907.24414	-735.21350	-88.07623	850.02264	-1190.70081	29.51026	1503.30396	-1278.68396	45.71884	1312.44556	-1297.75122	18.75138	1166.79504	-1311.08606	-29.43254	1054.74451	-1282.23328	-93.44904	937.05255	-1321.36975	-53.64769	927.15601	-1314.33557	-98.40628	868.96484	-880.56781	-82.58677	998.11511	-1134.75525	-76.17284	980.17072	-952.84521	128.13203	1039.82629	-1067.90002	135.71355	1033.56580	-831.22437	-20.40476	683.14099	-865.56378	7.46917	480.48706	-871.14874	56.23745	290.58752	-917.78668	44.36626	69.70377	-968.92316	81.10878	42.91138	-913.82568	-113.58547	33.64447	-1213.70850	-45.36621	675.90344	-1197.44983	-76.56657	480.29324	-1190.63745	57.20214	355.98105	-1150.80212	175.00128	205.89294	-1085.17126	219.87830	172.07613	-1197.55884	97.91053	73.78964	-1019.42169	32.46519	1812.60754			 
85	0.840	-933.24298	-81.72360	1746.48279	-1076.62122	-81.65151	1733.57251	-926.98328	46.58508	1668.22217	-1070.29126	59.75295	1653.97534	-1003.53864	98.24787	1529.61389	-1009.87274	146.92418	1253.41028	-993.99896	-42.45596	1463.54944	-1009.37952	-97.19328	1292.84143	-1070.89905	154.02986	1355.62134	-823.77295	24.82104	1499.61328	-743.98279	12.38704	1296.50098	-734.19952	-6.04456	1155.44971	-731.09412	-45.40171	1028.25610	-776.11548	-122.71656	920.77460	-737.39423	-81.98989	911.52502	-737.04816	-116.26830	855.70569	-1190.09534	20.28509	1503.08057	-1278.02014	38.32695	1312.24841	-1297.08813	13.11413	1166.44482	-1310.74060	-33.29739	1053.90955	-1282.31787	-95.54761	935.00903	-1321.46704	-55.46653	925.77814	-1314.84216	-99.19021	866.85095	-878.57141	-89.63217	998.06799	-1132.50696	-85.54865	980.99451	-953.58228	120.64799	1040.05591	-1068.87683	127.04147	1034.28491	-831.43610	-25.14852	682.67273	-866.00500	3.78633	480.26019	-871.17206	53.72258	290.80746	-918.05994	44.07258	69.85934	-969.20221	80.83334	43.02256	-913.81281	-113.75778	33.53246	-1212.83643	-59.09975	677.64166	-1195.59717	-93.67419	482.07379	-1190.09058	35.63985	352.50217	-1150.19531	147.76515	197.88231	-1084.82654	191.67224	162.04527	-1196.61145	64.35680	70.06380	-1019.89917	22.07864	1813.03198			 
